<svg xmlns="http://www.w3.org/2000/svg" viewBox="0 0 1000 250">
  <rect width="1000" height="250" fill="#2b2b2b"/>
  <path d="M180.5 62.5L95.5 187.5H35.5L120.5 62.5H180.5Z" fill="white"/>
  <path d="M180.5 187.5L138 124.5L95.5 187.5H180.5Z" fill="white"/>
  <path d="M265.344 158.25V187.5H240.094V62.5H292.844C303.01 62.5 311.76 64.1667 319.094 67.5C326.427 70.8333 332.01 75.5833 335.844 81.75C339.677 87.9167 341.594 95.1667 341.594 103.5C341.594 115.667 337.427 125.25 329.094 132.25C320.844 139.25 309.177 142.75 294.094 142.75H265.344V158.25ZM265.344 121.75H292.844C300.844 121.75 306.927 119.917 311.094 116.25C315.344 112.583 317.469 107.583 317.469 101.25C317.469 94.75 315.344 89.5833 311.094 85.75C306.844 81.9167 300.76 80 292.844 80H265.344V121.75Z" fill="white"/>
  <path d="M431.562 189C419.729 189 409.146 186.417 399.812 181.25C390.479 176.083 383.229 168.75 378.062 159.25C372.896 149.75 370.312 138.75 370.312 126.25C370.312 113.75 372.896 102.75 378.062 93.25C383.229 83.75 390.479 76.4167 399.812 71.25C409.146 66.0833 419.729 63.5 431.562 63.5C443.396 63.5 453.979 66.0833 463.312 71.25C472.646 76.4167 479.896 83.75 485.062 93.25C490.229 102.75 492.812 113.75 492.812 126.25C492.812 138.75 490.229 149.75 485.062 159.25C479.896 168.75 472.646 176.083 463.312 181.25C453.979 186.417 443.396 189 431.562 189ZM431.562 169C441.729 169 449.979 165.417 456.312 158.25C462.729 151.083 465.937 140.917 465.937 127.75C465.937 114.583 462.729 104.417 456.312 97.25C449.979 90.0833 441.729 86.5 431.562 86.5C421.396 86.5 413.146 90.0833 406.812 97.25C400.479 104.417 397.312 114.583 397.312 127.75C397.312 140.917 400.479 151.083 406.812 158.25C413.146 165.417 421.396 169 431.562 169Z" fill="white"/>
  <path d="M589.281 189C577.448 189 566.865 186.417 557.531 181.25C548.198 176.083 540.948 168.75 535.781 159.25C530.615 149.75 528.031 138.75 528.031 126.25C528.031 113.75 530.615 102.75 535.781 93.25C540.948 83.75 548.198 76.4167 557.531 71.25C566.865 66.0833 577.448 63.5 589.281 63.5C601.115 63.5 611.698 66.0833 621.031 71.25C630.365 76.4167 637.615 83.75 642.781 93.25C647.948 102.75 650.531 113.75 650.531 126.25C650.531 138.75 647.948 149.75 642.781 159.25C637.615 168.75 630.365 176.083 621.031 181.25C611.698 186.417 601.115 189 589.281 189ZM589.281 169C599.448 169 607.698 165.417 614.031 158.25C620.448 151.083 623.656 140.917 623.656 127.75C623.656 114.583 620.448 104.417 614.031 97.25C607.698 90.0833 599.448 86.5 589.281 86.5C579.115 86.5 570.865 90.0833 564.531 97.25C558.198 104.417 555.031 114.583 555.031 127.75C555.031 140.917 558.198 151.083 564.531 158.25C570.865 165.417 579.115 169 589.281 169Z" fill="white"/>
  <path d="M739.75 65.5L696.5 187.5H668L624.75 65.5H652.25L684 160.75L716.25 65.5H739.75Z" fill="white"/>
  <path d="M752.219 187.5V65.5H827.969V84.5H777.469V116.75H823.719V135.75H777.469V168.5H829.219V187.5H752.219Z" fill="white"/>
  <path d="M894.938 189C883.104 189 872.521 186.417 863.188 181.25C853.854 176.083 846.604 168.75 841.438 159.25C836.271 149.75 833.688 138.75 833.688 126.25C833.688 113.75 836.271 102.75 841.438 93.25C846.604 83.75 853.854 76.4167 863.188 71.25C872.521 66.0833 883.104 63.5 894.938 63.5C906.771 63.5 917.354 66.0833 926.688 71.25C936.021 76.4167 943.271 83.75 948.438 93.25C953.604 102.75 956.188 113.75 956.188 126.25C956.188 138.75 953.604 149.75 948.438 159.25C943.271 168.75 936.021 176.083 926.688 181.25C917.354 186.417 906.771 189 894.938 189ZM894.938 169C905.104 169 913.354 165.417 919.688 158.25C926.104 151.083 929.312 140.917 929.312 127.75C929.312 114.583 926.104 104.417 919.688 97.25C913.354 90.0833 905.104 86.5 894.938 86.5C884.771 86.5 876.521 90.0833 870.188 97.25C863.854 104.417 860.688 114.583 860.688 127.75C860.688 140.917 863.854 151.083 870.188 158.25C876.521 165.417 884.771 169 894.938 169Z" fill="white"/>
</svg>